# xmcd CD database file
# Copyright (C) 1997 Ti Kan
# 
# Track frame offsets:
#     150
#     14352
#     31657
#     47670
#     62687
#     75687
#     88357
#     102140
#     115945
#     132035
#     148940
#     165385
#     180692
#     195682
#     213777
#     231085
#     244792
# 
# Disc length: 3444 seconds
# 
# Revision: 1
# Processed by: cddbd v1.4b41PL1 Copyright (c) Steve Scherf et al.
# Submitted via: DiscPlay 4.0.4
# 
DISCID=df0d7211
DTITLE=Various Country - Lassoes 'n Spurs
DYEAR=1900
DGENRE=
TTITLE0=Goodbye, So Long, Hello
TTITLE1=Fast Movin' Train
TTITLE2=When It All Began
TTITLE3=Keep It In The Middle Of The Road
TTITLE4=How Many Times
TTITLE5=Walkin' Away
TTITLE6=I'm Over You
TTITLE7=The Scene Of The Crime
TTITLE8=Five Minutes
TTITLE9=Bring Back Your Love To Me
TTITLE10=Here In The Real World
TTITLE11=Seein' My Father In Me
TTITLE12=Just As Long As I Have You
TTITLE13=Crocodile Tears
TTITLE14=U.S. Male
TTITLE15=Amy's Eyes
TTITLE16=Couldn't See The Gold
EXTD=
EXTT0=
EXTT1=
EXTT2=
EXTT3=
EXTT4=
EXTT5=
EXTT6=
EXTT7=
EXTT8=
EXTT9=
EXTT10=
EXTT11=
EXTT12=
EXTT13=
EXTT14=
EXTT15=
EXTT16=
PLAYORDER=
